<svg width="40" height="41" viewBox="0 0 40 41" fill="none" xmlns="http://www.w3.org/2000/svg">
<path d="M6.66663 18.8333V32.1667C6.66663 33.0507 7.01782 33.8986 7.64294 34.5237C8.26806 35.1488 9.1159 35.5 9.99996 35.5H30C30.884 35.5 31.7319 35.1488 32.357 34.5237C32.9821 33.8986 33.3333 33.0507 33.3333 32.1667V18.8333H6.66663Z" stroke="#F2F2F2" stroke-width="2" stroke-linecap="round" stroke-linejoin="round"/>
<path d="M6.66672 18.8333L5.20005 14.05C5.07147 13.6309 5.02684 13.1905 5.0687 12.7541C5.11056 12.3177 5.23809 11.8939 5.444 11.5068C5.6499 11.1198 5.93013 10.7772 6.26864 10.4986C6.60715 10.22 6.99729 10.0109 7.41672 9.88334L26.5501 4.05C27.3943 3.78965 28.3074 3.87512 29.0887 4.28764C29.87 4.70016 30.4556 5.40598 30.7167 6.25L32.1667 11.0333L6.66672 18.85V18.8333Z" stroke="#F2F2F2" stroke-width="2" stroke-linecap="round" stroke-linejoin="round"/>
<path d="M11 8.81667L16.6333 15.8167" stroke="#F2F2F2" stroke-width="2" stroke-linecap="round" stroke-linejoin="round"/>
<path d="M19.7667 6.13333L25.4001 13.1333" stroke="#F2F2F2" stroke-width="2" stroke-linecap="round" stroke-linejoin="round"/>
</svg>
